# xmcd
#
# Track frame offsets: 
#        210
#        15042
#        29452
#        43815
#        64115
#        80675
#        96202
#        108542
#        124845
#        137870
#        157395
#        175477
#
# Disc length: 2576 seconds
#
# Revision: 0
# Processed by: cddbd v1.4PL0 Copyright (c) Steve Scherf et al.
# Submitted via: ExactAudioCopy v0.95a3
#
DISCID=a70a0e0c
DTITLE=Various Artist - This is Blacktop
DYEAR=1989
DGENRE=Blues
TTITLE0=Anson Funderburgh and the Rockets with Sam Myers/I Can't Stop Lo
TTITLE0=ving
TTITLE1=Earl King and Roomful of Blues/Iron Cupid
TTITLE2=Snooks Eaglin/That Certain Door
TTITLE3=The Neville Brothers/Woman's Got to Have it
TTITLE4=Bobby Radcliff/Stick Around
TTITLE5=Grady Gaines and the Texas Upsetters/Full Gain
TTITLE6=Hubert Sumlin and Mighty Sam/Can't call you no more
TTITLE7=Anson Funderburgh and the Rockets with Sam Myers/Lemonade
TTITLE8=Snooks Eaglin/Young Girl
TTITLE9=Joe Medwick with Grady Gaines and the Texas Upsetters/If I Don't
TTITLE9=Get Involved (I Can't Get Hurt)
TTITLE10=James 'Thunderbird' Davies/Hello Sundown
TTITLE11=Ron Levy's Wild Kingdom/Party in Nogales
EXTD=
EXTT0=
EXTT1=
EXTT2=
EXTT3=
EXTT4=
EXTT5=
EXTT6=
EXTT7=
EXTT8=
EXTT9=
EXTT10=
EXTT11=
PLAYORDER=
